PathFileType	4	(X/Y/Z)	E:\Qualisys_Data\Carbon_Farble_Plate\Data\Amateur_Runner\S14\T3\S14T3V21_c3d.trc
DataRate	CameraRate	NumFrames	NumMarkers	Units	OrigDataRate	OrigDataStartFrame	OrigNumFrames
200.000000	200.000000	4	39	mm	200.000000	203	326
Frame#	Time	LSHO			RSHO			LICST			RICST			LASIS			LHEEL			RASIS			LTROC			RTROC			SACR			LTH1			LSK4			LTH2			LTH3			RHM5			LSK2			LTH4			RTH1			LTOE			RTH2			RTH3			RTH4			LLEP			RLEP			LSK1			LSK3			RSK1			LHM5			RSK2			LFT1			RSK3			RSK4			LLME			RLME			RTOE			RHEEL			RFT1			RFT2			LFT2			
		X1	Y1	Z1	X2	Y2	Z2	X3	Y3	Z3	X4	Y4	Z4	X5	Y5	Z5	X6	Y6	Z6	X7	Y7	Z7	X8	Y8	Z8	X9	Y9	Z9	X10	Y10	Z10	X11	Y11	Z11	X12	Y12	Z12	X13	Y13	Z13	X14	Y14	Z14	X15	Y15	Z15	X16	Y16	Z16	X17	Y17	Z17	X18	Y18	Z18	X19	Y19	Z19	X20	Y20	Z20	X21	Y21	Z21	X22	Y22	Z22	X23	Y23	Z23	X24	Y24	Z24	X25	Y25	Z25	X26	Y26	Z26	X27	Y27	Z27	X28	Y28	Z28	X29	Y29	Z29	X30	Y30	Z30	X31	Y31	Z31	X32	Y32	Z32	X33	Y33	Z33	X34	Y34	Z34	X35	Y35	Z35	X36	Y36	Z36	X37	Y37	Z37	X38	Y38	Z38	X39	Y39	Z39	

204	1.015	518.051025390625	1402.839111328125	-498.0815124511719	582.828369140625	1386.222534179688	-201.1777038574219	494.2003479003906	945.7051391601562	-482.2863464355469	542.8631591796875	950.430419921875	-206.8041381835938	543.0612182617188	897.4707641601562	-463.0757446289062	302.9939270019531	337.4443359375	-400.1588439941406	567.9481811523438	909.7914428710938	-227.4646148681641	421.1478881835938	820.5056762695312	-497.3938598632812	427.0793151855469	831.4417114257812	-166.4222869873047	377.8004760742188	944.8560791015624	-337.3487854003906	611.0067138671875	655.7940063476562	-519.1360473632812	483.0681762695312	433.6196594238281	-480.26953125	550.955078125	612.6515502929688	-492.4022521972656	676.0224609375	579.1248779296875	-504.9943542480469	313.2680053710938	57.18428802490234	-227.7973785400391	564.3798217773438	487.2298278808594	-501.738037109375	611.245849609375	535.2750854492188	-483.2539672851562	549.3612060546875	602.8975830078125	-188.6782989501953	456.9512939453125	125.8185806274414	-428.7739868164062	472.6708374023438	610.3024291992188	-177.3645172119141	541.8191528320312	508.1347961425781	-223.6499633789062	459.9353637695312	512.498291015625	-206.0118103027344	652.17919921875	505.9178466796875	-506.1976623535156	479.5501708984375	442.7480163574219	-212.8502960205078	612.0576171875	419.2461853027344	-495.6983947753906	526.9255981445312	365.7105407714844	-476.6434020996094	431.0411376953125	323.0168762207031	-223.9726257324219	404.2059631347656	175.2741851806641	-487.7927551269531	361.2770080566406	371.558349609375	-213.1356048583984	284.7754211425781	309.2388305664062	-375.0397644042969	364.1328430175781	246.0163421630859	-243.6931762695312	304.7347717285156	295.5913391113281	-229.2621307373047	362.6689147949219	312.3760070800781	-459.1740417480469	217.2392578125	148.0552978515625	-259.3380126953125	382.3270568847656	50.61294174194336	-298.4771118164062	144.9942779541016	135.4036560058594	-314.0907897949219	148.5760192871094	106.0665588378906	-342.2259521484375	136.2301025390625	116.2285690307617	-290.7436828613281	281.5903625488281	318.7254638671875	-428.1578063964844
205	1.02	535.3886108398438	1407.184692382812	-498.409912109375	604.0753784179688	1390.988159179688	-202.7112121582031	515.0020141601562	950.0971069335938	-482.1034851074219	564.4791259765625	954.644775390625	-207.2729339599609	563.8442993164062	901.7902221679688	-463.0514831542969	334.4627075195312	327.5428466796875	-401.3229675292969	588.6534423828125	913.7324829101562	-227.4045257568359	443.3684692382812	825.3253784179688	-498.740478515625	447.6082763671875	835.7393188476562	-165.4007415771484	398.7040100097656	948.4562377929688	-337.573974609375	635.4022827148438	662.464111328125	-517.7512817382812	511.5381774902344	431.1776428222656	-479.9071350097656	575.1920166015625	618.4337158203125	-493.3268127441406	700.7957763671875	586.4730224609375	-502.8997192382812	314.7619018554688	57.43134689331055	-227.0689086914062	590.1456909179688	488.2335815429688	-501.2091369628906	636.0076293945312	542.3917846679688	-483.1170043945312	562.9082641601562	605.1553344726562	-189.7446899414062	499.4950866699219	123.8348846435547	-427.3544921875	486.8769226074219	614.3807983398438	-178.0001525878906	552.5093383789062	510.6345520019531	-224.0366668701172	470.8443908691406	516.79345703125	-204.7970886230469	678.5410766601562	511.8398742675781	-504.7904052734375	488.8135375976562	446.4295349121094	-212.8394470214844	640.3987426757812	423.0518493652344	-494.8516845703125	558.4143676757812	365.1651916503906	-475.4283752441406	438.3517150878906	327.3610534667969	-222.9868011474609	444.8910522460938	169.9909820556641	-487.1167907714844	369.5072326660156	377.0913391113281	-212.1881866455078	317.8832702636719	298.3612365722656	-376.5266418457031	370.5228576660156	250.7802124023438	-241.9500427246094	311.8544006347656	301.6387329101562	-227.9379272460938	395.4865417480469	304.503662109375	-459.2778625488281	222.2750701904297	153.7704467773438	-257.6932373046875	383.4421081542969	50.393798828125	-297.9188842773438	149.653076171875	143.0841064453125	-313.1076354980469	152.9227294921875	113.8123474121094	-340.9085083007812	140.6384429931641	123.7060623168945	-289.5084533691406	314.5806884765625	307.3355712890625	-429.5364685058594
206	1.025	552.8434448242188	1411.465576171875	-498.7563171386719	625.0529174804688	1395.816772460938	-204.6897735595703	535.974853515625	954.582275390625	-482.2874450683594	585.8008422851562	958.9513549804688	-207.4798889160156	583.9578247070312	906.7429809570312	-462.6851196289062	366.5559692382812	317.5440979003906	-402.0361328125	609.8433227539062	917.6702270507812	-228.2465972900391	465.5548400878906	831.0659790039062	-501.2647705078125	468.2132873535156	840.0463256835938	-164.9038543701172	419.9170227050781	952.4855346679688	-337.4384460449219	659.2672119140625	668.968505859375	-516.4766845703125	539.851806640625	429.3035278320312	-479.9437866210938	598.9722900390625	624.2869262695312	-493.709716796875	724.9619140625	593.6968994140625	-501.4757690429688	316.6617126464844	57.73870849609375	-226.4494781494141	616.36279296875	489.4526977539062	-500.506103515625	660.5371704101562	548.79736328125	-482.9820556640625	577.218017578125	608.0181884765625	-190.1180267333984	542.0540161132812	122.3031845092773	-426.1444702148438	501.715087890625	618.8439331054688	-178.5280303955078	564.5198974609375	513.841552734375	-223.8367004394531	482.6746826171875	521.5736694335938	-204.3753509521484	704.5142211914062	517.337158203125	-503.7158813476562	498.6334838867188	451.0551452636719	-212.2998657226562	669.15673828125	426.4437866210938	-493.5032043457031	589.5319213867188	365.34423828125	-474.9538879394531	446.4346313476562	332.5586853027344	-221.3154602050781	485.3768615722656	165.4271545410156	-486.3263244628906	377.912841796875	382.6525268554688	-210.8347015380859	351.0253601074219	287.8404846191406	-378.0707092285156	377.2630310058594	255.9787902832031	-240.0659027099609	319.2372436523438	307.9989929199219	-226.8115997314453	428.0966491699219	297.4229431152344	-459.8612365722656	228.4364624023438	159.98046875	-255.9142456054688	384.8953857421875	49.16281509399414	-298.2528991699219	155.5548400878906	151.0722198486328	-311.4464111328125	158.5686492919922	122.1700820922852	-339.1818542480469	145.89111328125	131.7765655517578	-288.2941284179688	347.8017578125	295.9849548339844	-430.5029296875
207	1.03	570.5219116210938	1415.889404296875	-498.9223022460938	645.9822998046875	1400.6806640625	-206.1851959228516	556.6204833984375	959.703857421875	-482.1965637207031	607.3182373046875	962.5079956054688	-208.5759429931641	604.9398803710938	911.9395751953124	-462.8955383300781	398.6608276367188	307.1747436523438	-403.1196594238281	630.835693359375	921.8027954101562	-229.0088806152344	487.6467590332031	836.473388671875	-502.467529296875	489.0911560058594	844.3530883789062	-164.1542205810547	441.0367431640625	956.5364990234376	-337.678955078125	682.8578491210938	675.2777099609375	-515.2904052734375	568.1917114257812	427.3060607910156	-479.9241027832031	622.6405029296875	629.90673828125	-494.1957702636719	748.9279174804688	600.5755004882812	-499.9784240722656	319.0552673339844	58.76005554199219	-224.9925231933594	641.76806640625	489.9683837890625	-499.74853515625	684.6817626953125	555.0510864257812	-482.76611328125	591.4254150390625	610.9825439453125	-191.1497192382812	583.9993286132812	120.7841033935547	-424.7608947753906	516.2921142578125	623.6112670898438	-178.8261871337891	576.0708618164062	516.8363647460938	-224.6443634033203	495.1152954101562	526.68701171875	-203.6207427978516	729.6672973632812	522.333251953125	-502.4232788085938	509.1423034667969	455.3318481445312	-211.1313629150391	697.492919921875	429.9141235351562	-492.5812683105469	620.9517211914062	364.3186645507812	-474.3645935058594	454.6370544433594	337.778564453125	-220.0012817382812	525.8753051757812	160.9884033203125	-485.716796875	386.7152404785156	388.6717834472656	-209.735595703125	384.7489624023438	276.8478088378906	-378.5791931152344	384.5459594726562	262.1581115722656	-238.2302856445312	327.7904052734375	314.8805847167969	-225.0426177978516	463.5201110839844	289.3448791503906	-458.6986999511719	234.9558258056641	166.3964385986328	-254.3243408203125	386.7540283203125	49.67605209350586	-296.28271484375	162.5967712402344	160.0271453857422	-309.27880859375	164.5468902587891	131.0195465087891	-337.6597595214844	152.3082885742188	140.5427551269531	-286.6829833984375	381.0713500976562	285.2254333496094	-431.7018737792969
